<?xml version="1.0" encoding="utf-8" standalone="no"?>
<!DOCTYPE svg PUBLIC "-//W3C//DTD SVG 1.1//EN"
  "http://www.w3.org/Graphics/SVG/1.1/DTD/svg11.dtd">
<svg xmlns:xlink="http://www.w3.org/1999/xlink" width="576pt" height="252pt" viewBox="0 0 576 252" xmlns="http://www.w3.org/2000/svg" version="1.1">
 <metadata>
  <rdf:RDF xmlns:dc="http://purl.org/dc/elements/1.1/" xmlns:cc="http://creativecommons.org/ns#" xmlns:rdf="http://www.w3.org/1999/02/22-rdf-syntax-ns#">
   <cc:Work>
    <dc:type rdf:resource="http://purl.org/dc/dcmitype/StillImage"/>
    <dc:date>2026-06-23T00:00:45.225117</dc:date>
    <dc:format>image/svg+xml</dc:format>
    <dc:creator>
     <cc:Agent>
      <dc:title>Matplotlib v3.10.9, https://matplotlib.org/</dc:title>
     </cc:Agent>
    </dc:creator>
   </cc:Work>
  </rdf:RDF>
 </metadata>
 <defs>
  <style type="text/css">*{stroke-linejoin: round; stroke-linecap: butt}</style>
 </defs>
 <g id="figure_1">
  <g id="patch_1">
   <path d="M 0 252 
L 576 252 
L 576 0 
L 0 0 
z
" style="fill: #ffffff"/>
  </g>
  <g id="axes_1">
   <g id="line2d_1">
    <path d="M 80.1 141.844375 
L 80.13489 139.952966 
L 80.239523 138.063461 
L 80.413796 136.177763 
L 80.657531 134.297772 
L 80.970485 132.425379 
L 81.352341 130.56247 
L 81.802716 128.710921 
L 82.321155 126.872596 
L 82.907137 125.049346 
L 83.560072 123.243008 
L 84.279301 121.4554 
L 85.064102 119.688322 
L 85.913684 117.943553 
L 86.827191 116.22285 
L 87.803703 114.527946 
L 88.842238 112.860547 
L 89.941749 111.222332 
L 91.10113 109.614951 
L 92.319213 108.040023 
L 93.594771 106.499132 
L 94.926521 104.993832 
L 96.31312 103.525636 
L 97.753174 102.096025 
L 99.245231 100.706436 
L 100.78779 99.35827 
L 102.379298 98.052884 
L 104.018151 96.791592 
L 105.7027 95.575665 
L 107.431249 94.406326 
L 109.202056 93.284753 
L 111.01334 92.212076 
L 112.863275 91.189374 
L 114.75 90.217678 
L 116.671615 89.297965 
L 118.626184 88.431162 
L 120.61174 87.618142 
L 122.626283 86.859723 
L 124.667785 86.156668 
L 126.73419 85.509687 
L 128.823418 84.91943 
L 130.933365 84.386491 
L 133.061906 83.911408 
L 135.206898 83.494658 
L 137.366181 83.136661 
L 139.537582 82.837778 
L 141.718913 82.59831 
L 143.907978 82.418497 
L 146.102573 82.298522 
L 148.300489 82.238504 
L 150.499511 82.238504 
L 152.697427 82.298522 
L 154.892022 82.418497 
L 157.081087 82.59831 
L 159.262418 82.837778 
L 161.433819 83.136661 
L 163.593102 83.494658 
L 165.738094 83.911408 
L 167.866635 84.386491 
L 169.976582 84.91943 
L 172.06581 85.509687 
L 174.132215 86.156668 
L 176.173717 86.859723 
L 178.18826 87.618142 
L 180.173816 88.431162 
L 182.128385 89.297965 
L 184.05 90.217678 
L 185.936725 91.189374 
L 187.78666 92.212076 
L 189.597944 93.284753 
L 191.368751 94.406326 
L 193.0973 95.575665 
L 194.781849 96.791592 
L 196.420702 98.052884 
L 198.01221 99.35827 
L 199.554769 100.706436 
L 201.046826 102.096025 
L 202.48688 103.525636 
L 203.873479 104.993832 
L 205.205229 106.499132 
L 206.480787 108.040023 
L 207.69887 109.614951 
L 208.858251 111.222332 
L 209.957762 112.860547 
L 210.996297 114.527946 
L 211.972809 116.22285 
L 212.886316 117.943553 
L 213.735898 119.688322 
L 214.520699 121.4554 
L 215.239928 123.243008 
L 215.892863 125.049346 
L 216.478845 126.872596 
L 216.997284 128.710921 
L 217.447659 130.56247 
L 217.829515 132.425379 
L 218.142469 134.297772 
L 218.386204 136.177763 
L 218.560477 138.063461 
L 218.66511 139.952966 
L 218.7 141.844375 
" clip-path="url(#pe7917a0c26)" style="fill: none; stroke: #16a34a; stroke-opacity: 0.8; stroke-width: 2.833333; stroke-linecap: square"/>
   </g>
   <g id="line2d_2">
    <path d="M 218.7 141.844375 
L 218.73489 139.952966 
L 218.839523 138.063461 
L 219.013796 136.177763 
L 219.257531 134.297772 
L 219.570485 132.425379 
L 219.952341 130.56247 
L 220.402716 128.710921 
L 220.921155 126.872596 
L 221.507137 125.049346 
L 222.160072 123.243008 
L 222.879301 121.4554 
L 223.664102 119.688322 
L 224.513684 117.943553 
L 225.427191 116.22285 
L 226.403703 114.527946 
L 227.442238 112.860547 
L 228.541749 111.222332 
L 229.70113 109.614951 
L 230.919213 108.040023 
L 232.194771 106.499132 
L 233.526521 104.993832 
L 234.91312 103.525636 
L 236.353174 102.096025 
L 237.845231 100.706436 
L 239.38779 99.35827 
L 240.979298 98.052884 
L 242.618151 96.791592 
L 244.3027 95.575665 
L 246.031249 94.406326 
L 247.802056 93.284753 
L 249.61334 92.212076 
L 251.463275 91.189374 
L 253.35 90.217678 
L 255.271615 89.297965 
L 257.226184 88.431162 
L 259.21174 87.618142 
L 261.226283 86.859723 
L 263.267785 86.156668 
L 265.33419 85.509687 
L 267.423418 84.91943 
L 269.533365 84.386491 
L 271.661906 83.911408 
L 273.806898 83.494658 
L 275.966181 83.136661 
L 278.137582 82.837778 
L 280.318913 82.59831 
L 282.507978 82.418497 
L 284.702573 82.298522 
L 286.900489 82.238504 
L 289.099511 82.238504 
L 291.297427 82.298522 
L 293.492022 82.418497 
L 295.681087 82.59831 
L 297.862418 82.837778 
L 300.033819 83.136661 
L 302.193102 83.494658 
L 304.338094 83.911408 
L 306.466635 84.386491 
L 308.576582 84.91943 
L 310.66581 85.509687 
L 312.732215 86.156668 
L 314.773717 86.859723 
L 316.78826 87.618142 
L 318.773816 88.431162 
L 320.728385 89.297965 
L 322.65 90.217678 
L 324.536725 91.189374 
L 326.38666 92.212076 
L 328.197944 93.284753 
L 329.968751 94.406326 
L 331.6973 95.575665 
L 333.381849 96.791592 
L 335.020702 98.052884 
L 336.61221 99.35827 
L 338.154769 100.706436 
L 339.646826 102.096025 
L 341.08688 103.525636 
L 342.473479 104.993832 
L 343.805229 106.499132 
L 345.080787 108.040023 
L 346.29887 109.614951 
L 347.458251 111.222332 
L 348.557762 112.860547 
L 349.596297 114.527946 
L 350.572809 116.22285 
L 351.486316 117.943553 
L 352.335898 119.688322 
L 353.120699 121.4554 
L 353.839928 123.243008 
L 354.492863 125.049346 
L 355.078845 126.872596 
L 355.597284 128.710921 
L 356.047659 130.56247 
L 356.429515 132.425379 
L 356.742469 134.297772 
L 356.986204 136.177763 
L 357.160477 138.063461 
L 357.26511 139.952966 
L 357.3 141.844375 
" clip-path="url(#pe7917a0c26)" style="fill: none; stroke: #16a34a; stroke-opacity: 0.8; stroke-width: 2.333333; stroke-linecap: square"/>
   </g>
   <g id="line2d_3">
    <path d="M 357.3 141.844375 
L 357.33489 139.952966 
L 357.439523 138.063461 
L 357.613796 136.177763 
L 357.857531 134.297772 
L 358.170485 132.425379 
L 358.552341 130.56247 
L 359.002716 128.710921 
L 359.521155 126.872596 
L 360.107137 125.049346 
L 360.760072 123.243008 
L 361.479301 121.4554 
L 362.264102 119.688322 
L 363.113684 117.943553 
L 364.027191 116.22285 
L 365.003703 114.527946 
L 366.042238 112.860547 
L 367.141749 111.222332 
L 368.30113 109.614951 
L 369.519213 108.040023 
L 370.794771 106.499132 
L 372.126521 104.993832 
L 373.51312 103.525636 
L 374.953174 102.096025 
L 376.445231 100.706436 
L 377.98779 99.35827 
L 379.579298 98.052884 
L 381.218151 96.791592 
L 382.9027 95.575665 
L 384.631249 94.406326 
L 386.402056 93.284753 
L 388.21334 92.212076 
L 390.063275 91.189374 
L 391.95 90.217678 
L 393.871615 89.297965 
L 395.826184 88.431162 
L 397.81174 87.618142 
L 399.826283 86.859723 
L 401.867785 86.156668 
L 403.93419 85.509687 
L 406.023418 84.91943 
L 408.133365 84.386491 
L 410.261906 83.911408 
L 412.406898 83.494658 
L 414.566181 83.136661 
L 416.737582 82.837778 
L 418.918913 82.59831 
L 421.107978 82.418497 
L 423.302573 82.298522 
L 425.500489 82.238504 
L 427.699511 82.238504 
L 429.897427 82.298522 
L 432.092022 82.418497 
L 434.281087 82.59831 
L 436.462418 82.837778 
L 438.633819 83.136661 
L 440.793102 83.494658 
L 442.938094 83.911408 
L 445.066635 84.386491 
L 447.176582 84.91943 
L 449.26581 85.509687 
L 451.332215 86.156668 
L 453.373717 86.859723 
L 455.38826 87.618142 
L 457.373816 88.431162 
L 459.328385 89.297965 
L 461.25 90.217678 
L 463.136725 91.189374 
L 464.98666 92.212076 
L 466.797944 93.284753 
L 468.568751 94.406326 
L 470.2973 95.575665 
L 471.981849 96.791592 
L 473.620702 98.052884 
L 475.21221 99.35827 
L 476.754769 100.706436 
L 478.246826 102.096025 
L 479.68688 103.525636 
L 481.073479 104.993832 
L 482.405229 106.499132 
L 483.680787 108.040023 
L 484.89887 109.614951 
L 486.058251 111.222332 
L 487.157762 112.860547 
L 488.196297 114.527946 
L 489.172809 116.22285 
L 490.086316 117.943553 
L 490.935898 119.688322 
L 491.720699 121.4554 
L 492.439928 123.243008 
L 493.092863 125.049346 
L 493.678845 126.872596 
L 494.197284 128.710921 
L 494.647659 130.56247 
L 495.029515 132.425379 
L 495.342469 134.297772 
L 495.586204 136.177763 
L 495.760477 138.063461 
L 495.86511 139.952966 
L 495.9 141.844375 
" clip-path="url(#pe7917a0c26)" style="fill: none; stroke: #16a34a; stroke-opacity: 0.8; stroke-width: 2.5; stroke-linecap: square"/>
   </g>
   <g id="line2d_4">
    <path d="M 357.3 141.844375 
L 357.26511 143.735784 
L 357.160477 145.625289 
L 356.986204 147.510987 
L 356.742469 149.390978 
L 356.429515 151.263371 
L 356.047659 153.12628 
L 355.597284 154.977829 
L 355.078845 156.816154 
L 354.492863 158.639404 
L 353.839928 160.445742 
L 353.120699 162.23335 
L 352.335898 164.000428 
L 351.486316 165.745197 
L 350.572809 167.4659 
L 349.596297 169.160804 
L 348.557762 170.828203 
L 347.458251 172.466418 
L 346.29887 174.073799 
L 345.080787 175.648727 
L 343.805229 177.189618 
L 342.473479 178.694918 
L 341.08688 180.163114 
L 339.646826 181.592725 
L 338.154769 182.982314 
L 336.61221 184.33048 
L 335.020702 185.635866 
L 333.381849 186.897158 
L 331.6973 188.113085 
L 329.968751 189.282424 
L 328.197944 190.403997 
L 326.38666 191.476674 
L 324.536725 192.499376 
L 322.65 193.471072 
L 320.728385 194.390785 
L 318.773816 195.257588 
L 316.78826 196.070608 
L 314.773717 196.829027 
L 312.732215 197.532082 
L 310.66581 198.179063 
L 308.576582 198.76932 
L 306.466635 199.302259 
L 304.338094 199.777342 
L 302.193102 200.194092 
L 300.033819 200.552089 
L 297.862418 200.850972 
L 295.681087 201.09044 
L 293.492022 201.270253 
L 291.297427 201.390228 
L 289.099511 201.450246 
L 286.900489 201.450246 
L 284.702573 201.390228 
L 282.507978 201.270253 
L 280.318913 201.09044 
L 278.137582 200.850972 
L 275.966181 200.552089 
L 273.806898 200.194092 
L 271.661906 199.777342 
L 269.533365 199.302259 
L 267.423418 198.76932 
L 265.33419 198.179063 
L 263.267785 197.532082 
L 261.226283 196.829027 
L 259.21174 196.070608 
L 257.226184 195.257588 
L 255.271615 194.390785 
L 253.35 193.471072 
L 251.463275 192.499376 
L 249.61334 191.476674 
L 247.802056 190.403997 
L 246.031249 189.282424 
L 244.3027 188.113085 
L 242.618151 186.897158 
L 240.979298 185.635866 
L 239.38779 184.33048 
L 237.845231 182.982314 
L 236.353174 181.592725 
L 234.91312 180.163114 
L 233.526521 178.694918 
L 232.194771 177.189618 
L 230.919213 175.648727 
L 229.70113 174.073799 
L 228.541749 172.466418 
L 227.442238 170.828203 
L 226.403703 169.160804 
L 225.427191 167.4659 
L 224.513684 165.745197 
L 223.664102 164.000428 
L 222.879301 162.23335 
L 222.160072 160.445742 
L 221.507137 158.639404 
L 220.921155 156.816154 
L 220.402716 154.977829 
L 219.952341 153.12628 
L 219.570485 151.263371 
L 219.257531 149.390978 
L 219.013796 147.510987 
L 218.839523 145.625289 
L 218.73489 143.735784 
L 218.7 141.844375 
" clip-path="url(#pe7917a0c26)" style="fill: none; stroke: #dc2626; stroke-opacity: 0.8; stroke-width: 1.766667; stroke-linecap: square"/>
   </g>
   <g id="line2d_5">
    <path d="M 218.7 141.844375 
L 218.66511 143.735784 
L 218.560477 145.625289 
L 218.386204 147.510987 
L 218.142469 149.390978 
L 217.829515 151.263371 
L 217.447659 153.12628 
L 216.997284 154.977829 
L 216.478845 156.816154 
L 215.892863 158.639404 
L 215.239928 160.445742 
L 214.520699 162.23335 
L 213.735898 164.000428 
L 212.886316 165.745197 
L 211.972809 167.4659 
L 210.996297 169.160804 
L 209.957762 170.828203 
L 208.858251 172.466418 
L 207.69887 174.073799 
L 206.480787 175.648727 
L 205.205229 177.189618 
L 203.873479 178.694918 
L 202.48688 180.163114 
L 201.046826 181.592725 
L 199.554769 182.982314 
L 198.01221 184.33048 
L 196.420702 185.635866 
L 194.781849 186.897158 
L 193.0973 188.113085 
L 191.368751 189.282424 
L 189.597944 190.403997 
L 187.78666 191.476674 
L 185.936725 192.499376 
L 184.05 193.471072 
L 182.128385 194.390785 
L 180.173816 195.257588 
L 178.18826 196.070608 
L 176.173717 196.829027 
L 174.132215 197.532082 
L 172.06581 198.179063 
L 169.976582 198.76932 
L 167.866635 199.302259 
L 165.738094 199.777342 
L 163.593102 200.194092 
L 161.433819 200.552089 
L 159.262418 200.850972 
L 157.081087 201.09044 
L 154.892022 201.270253 
L 152.697427 201.390228 
L 150.499511 201.450246 
L 148.300489 201.450246 
L 146.102573 201.390228 
L 143.907978 201.270253 
L 141.718913 201.09044 
L 139.537582 200.850972 
L 137.366181 200.552089 
L 135.206898 200.194092 
L 133.061906 199.777342 
L 130.933365 199.302259 
L 128.823418 198.76932 
L 126.73419 198.179063 
L 124.667785 197.532082 
L 122.626283 196.829027 
L 120.61174 196.070608 
L 118.626184 195.257588 
L 116.671615 194.390785 
L 114.75 193.471072 
L 112.863275 192.499376 
L 111.01334 191.476674 
L 109.202056 190.403997 
L 107.431249 189.282424 
L 105.7027 188.113085 
L 104.018151 186.897158 
L 102.379298 185.635866 
L 100.78779 184.33048 
L 99.245231 182.982314 
L 97.753174 181.592725 
L 96.31312 180.163114 
L 94.926521 178.694918 
L 93.594771 177.189618 
L 92.319213 175.648727 
L 91.10113 174.073799 
L 89.941749 172.466418 
L 88.842238 170.828203 
L 87.803703 169.160804 
L 86.827191 167.4659 
L 85.913684 165.745197 
L 85.064102 164.000428 
L 84.279301 162.23335 
L 83.560072 160.445742 
L 82.907137 158.639404 
L 82.321155 156.816154 
L 81.802716 154.977829 
L 81.352341 153.12628 
L 80.970485 151.263371 
L 80.657531 149.390978 
L 80.413796 147.510987 
L 80.239523 145.625289 
L 80.13489 143.735784 
L 80.1 141.844375 
" clip-path="url(#pe7917a0c26)" style="fill: none; stroke: #dc2626; stroke-opacity: 0.8; stroke-width: 1.666667; stroke-linecap: square"/>
   </g>
   <g id="PathCollection_1">
    <defs>
     <path id="m262cfd2703" d="M 0 14.142136 
C 3.750538 14.142136 7.347969 12.652031 10 10 
C 12.652031 7.347969 14.142136 3.750538 14.142136 0 
C 14.142136 -3.750538 12.652031 -7.347969 10 -10 
C 7.347969 -12.652031 3.750538 -14.142136 0 -14.142136 
C -3.750538 -14.142136 -7.347969 -12.652031 -10 -10 
C -12.652031 -7.347969 -14.142136 -3.750538 -14.142136 0 
C -14.142136 3.750538 -12.652031 7.347969 -10 10 
C -7.347969 12.652031 -3.750538 14.142136 0 14.142136 
z
" style="stroke: #4f46e5"/>
    </defs>
    <g clip-path="url(#pe7917a0c26)">
     <use xlink:href="#m262cfd2703" x="80.1" y="141.844375" style="fill: #4f46e5; stroke: #4f46e5"/>
    </g>
   </g>
   <g id="text_1">
    <!-- M3 -->
    <g style="fill: #ffffff" transform="translate(69.954375 145.155625) scale(0.12 -0.12)">
     <defs>
      <path id="DejaVuSans-Bold-4d" d="M 588 4666 
L 2119 4666 
L 3181 2169 
L 4250 4666 
L 5778 4666 
L 5778 0 
L 4641 0 
L 4641 3413 
L 3566 897 
L 2803 897 
L 1728 3413 
L 1728 0 
L 588 0 
L 588 4666 
z
" transform="scale(0.015625)"/>
      <path id="DejaVuSans-Bold-33" d="M 2981 2516 
Q 3453 2394 3698 2092 
Q 3944 1791 3944 1325 
Q 3944 631 3412 270 
Q 2881 -91 1863 -91 
Q 1503 -91 1142 -33 
Q 781 25 428 141 
L 428 1069 
Q 766 900 1098 814 
Q 1431 728 1753 728 
Q 2231 728 2486 893 
Q 2741 1059 2741 1369 
Q 2741 1688 2480 1852 
Q 2219 2016 1709 2016 
L 1228 2016 
L 1228 2791 
L 1734 2791 
Q 2188 2791 2409 2933 
Q 2631 3075 2631 3366 
Q 2631 3634 2415 3781 
Q 2200 3928 1806 3928 
Q 1516 3928 1219 3862 
Q 922 3797 628 3669 
L 628 4550 
Q 984 4650 1334 4700 
Q 1684 4750 2022 4750 
Q 2931 4750 3382 4451 
Q 3834 4153 3834 3553 
Q 3834 3144 3618 2883 
Q 3403 2622 2981 2516 
z
" transform="scale(0.015625)"/>
     </defs>
     <use xlink:href="#DejaVuSans-Bold-4d"/>
     <use xlink:href="#DejaVuSans-Bold-33" transform="translate(99.511719 0)"/>
    </g>
   </g>
   <g id="PathCollection_2">
    <g clip-path="url(#pe7917a0c26)">
     <use xlink:href="#m262cfd2703" x="218.7" y="141.844375" style="fill: #4f46e5; stroke: #4f46e5"/>
    </g>
   </g>
   <g id="text_2">
    <!-- M2 -->
    <g style="fill: #ffffff" transform="translate(208.554375 145.155625) scale(0.12 -0.12)">
     <defs>
      <path id="DejaVuSans-Bold-32" d="M 1844 884 
L 3897 884 
L 3897 0 
L 506 0 
L 506 884 
L 2209 2388 
Q 2438 2594 2547 2791 
Q 2656 2988 2656 3200 
Q 2656 3528 2436 3728 
Q 2216 3928 1850 3928 
Q 1569 3928 1234 3808 
Q 900 3688 519 3450 
L 519 4475 
Q 925 4609 1322 4679 
Q 1719 4750 2100 4750 
Q 2938 4750 3402 4381 
Q 3866 4013 3866 3353 
Q 3866 2972 3669 2642 
Q 3472 2313 2841 1759 
L 1844 884 
z
" transform="scale(0.015625)"/>
     </defs>
     <use xlink:href="#DejaVuSans-Bold-4d"/>
     <use xlink:href="#DejaVuSans-Bold-32" transform="translate(99.511719 0)"/>
    </g>
   </g>
   <g id="PathCollection_3">
    <g clip-path="url(#pe7917a0c26)">
     <use xlink:href="#m262cfd2703" x="357.3" y="141.844375" style="fill: #4f46e5; stroke: #4f46e5"/>
    </g>
   </g>
   <g id="text_3">
    <!-- M1 -->
    <g style="fill: #ffffff" transform="translate(347.154375 145.155625) scale(0.12 -0.12)">
     <defs>
      <path id="DejaVuSans-Bold-31" d="M 750 831 
L 1813 831 
L 1813 3847 
L 722 3622 
L 722 4441 
L 1806 4666 
L 2950 4666 
L 2950 831 
L 4013 831 
L 4013 0 
L 750 0 
L 750 831 
z
" transform="scale(0.015625)"/>
     </defs>
     <use xlink:href="#DejaVuSans-Bold-4d"/>
     <use xlink:href="#DejaVuSans-Bold-31" transform="translate(99.511719 0)"/>
    </g>
   </g>
   <g id="PathCollection_4">
    <g clip-path="url(#pe7917a0c26)">
     <use xlink:href="#m262cfd2703" x="495.9" y="141.844375" style="fill: #4f46e5; stroke: #4f46e5"/>
    </g>
   </g>
   <g id="text_4">
    <!-- M4 -->
    <g style="fill: #ffffff" transform="translate(485.754375 145.155625) scale(0.12 -0.12)">
     <defs>
      <path id="DejaVuSans-Bold-34" d="M 2356 3675 
L 1038 1722 
L 2356 1722 
L 2356 3675 
z
M 2156 4666 
L 3494 4666 
L 3494 1722 
L 4159 1722 
L 4159 850 
L 3494 850 
L 3494 0 
L 2356 0 
L 2356 850 
L 288 850 
L 288 1881 
L 2156 4666 
z
" transform="scale(0.015625)"/>
     </defs>
     <use xlink:href="#DejaVuSans-Bold-4d"/>
     <use xlink:href="#DejaVuSans-Bold-34" transform="translate(99.511719 0)"/>
    </g>
   </g>
   <g id="patch_2">
    <path d="M 152.495665 82.293012 
Q 152.596546 82.295767 150.462192 82.237485 
" style="fill: none; stroke: #16a34a; stroke-width: 2; stroke-linecap: round"/>
    <path d="M 146.518276 80.129043 
L 150.462192 82.237485 
L 146.409089 84.127553 
" style="fill: none; stroke: #16a34a; stroke-width: 2; stroke-linecap: round"/>
   </g>
   <g id="text_5">
    <!-- f=40 -->
    <g style="fill: #16a34a" transform="translate(138.31875 110.5469) scale(0.09 -0.09)">
     <defs>
      <path id="DejaVuSans-66" d="M 2375 4863 
L 2375 4384 
L 1825 4384 
Q 1516 4384 1395 4259 
Q 1275 4134 1275 3809 
L 1275 3500 
L 2222 3500 
L 2222 3053 
L 1275 3053 
L 1275 0 
L 697 0 
L 697 3053 
L 147 3053 
L 147 3500 
L 697 3500 
L 697 3744 
Q 697 4328 969 4595 
Q 1241 4863 1831 4863 
L 2375 4863 
z
" transform="scale(0.015625)"/>
      <path id="DejaVuSans-3d" d="M 678 2906 
L 4684 2906 
L 4684 2381 
L 678 2381 
L 678 2906 
z
M 678 1631 
L 4684 1631 
L 4684 1100 
L 678 1100 
L 678 1631 
z
" transform="scale(0.015625)"/>
      <path id="DejaVuSans-34" d="M 2419 4116 
L 825 1625 
L 2419 1625 
L 2419 4116 
z
M 2253 4666 
L 3047 4666 
L 3047 1625 
L 3713 1625 
L 3713 1100 
L 3047 1100 
L 3047 0 
L 2419 0 
L 2419 1100 
L 313 1100 
L 313 1709 
L 2253 4666 
z
" transform="scale(0.015625)"/>
      <path id="DejaVuSans-30" d="M 2034 4250 
Q 1547 4250 1301 3770 
Q 1056 3291 1056 2328 
Q 1056 1369 1301 889 
Q 1547 409 2034 409 
Q 2525 409 2770 889 
Q 3016 1369 3016 2328 
Q 3016 3291 2770 3770 
Q 2525 4250 2034 4250 
z
M 2034 4750 
Q 2819 4750 3233 4129 
Q 3647 3509 3647 2328 
Q 3647 1150 3233 529 
Q 2819 -91 2034 -91 
Q 1250 -91 836 529 
Q 422 1150 422 2328 
Q 422 3509 836 4129 
Q 1250 4750 2034 4750 
z
" transform="scale(0.015625)"/>
     </defs>
     <use xlink:href="#DejaVuSans-66"/>
     <use xlink:href="#DejaVuSans-3d" transform="translate(35.205078 0)"/>
     <use xlink:href="#DejaVuSans-34" transform="translate(118.994141 0)"/>
     <use xlink:href="#DejaVuSans-30" transform="translate(182.617188 0)"/>
    </g>
   </g>
   <g id="patch_3">
    <path d="M 291.095665 82.293012 
Q 291.196546 82.295767 289.062192 82.237485 
" style="fill: none; stroke: #16a34a; stroke-width: 2; stroke-linecap: round"/>
    <path d="M 285.118276 80.129043 
L 289.062192 82.237485 
L 285.009089 84.127553 
" style="fill: none; stroke: #16a34a; stroke-width: 2; stroke-linecap: round"/>
   </g>
   <g id="text_6">
    <!-- f=25 -->
    <g style="fill: #16a34a" transform="translate(276.91875 110.5469) scale(0.09 -0.09)">
     <defs>
      <path id="DejaVuSans-32" d="M 1228 531 
L 3431 531 
L 3431 0 
L 469 0 
L 469 531 
Q 828 903 1448 1529 
Q 2069 2156 2228 2338 
Q 2531 2678 2651 2914 
Q 2772 3150 2772 3378 
Q 2772 3750 2511 3984 
Q 2250 4219 1831 4219 
Q 1534 4219 1204 4116 
Q 875 4013 500 3803 
L 500 4441 
Q 881 4594 1212 4672 
Q 1544 4750 1819 4750 
Q 2544 4750 2975 4387 
Q 3406 4025 3406 3419 
Q 3406 3131 3298 2873 
Q 3191 2616 2906 2266 
Q 2828 2175 2409 1742 
Q 1991 1309 1228 531 
z
" transform="scale(0.015625)"/>
      <path id="DejaVuSans-35" d="M 691 4666 
L 3169 4666 
L 3169 4134 
L 1269 4134 
L 1269 2991 
Q 1406 3038 1543 3061 
Q 1681 3084 1819 3084 
Q 2600 3084 3056 2656 
Q 3513 2228 3513 1497 
Q 3513 744 3044 326 
Q 2575 -91 1722 -91 
Q 1428 -91 1123 -41 
Q 819 9 494 109 
L 494 744 
Q 775 591 1075 516 
Q 1375 441 1709 441 
Q 2250 441 2565 725 
Q 2881 1009 2881 1497 
Q 2881 1984 2565 2268 
Q 2250 2553 1709 2553 
Q 1456 2553 1204 2497 
Q 953 2441 691 2322 
L 691 4666 
z
" transform="scale(0.015625)"/>
     </defs>
     <use xlink:href="#DejaVuSans-66"/>
     <use xlink:href="#DejaVuSans-3d" transform="translate(35.205078 0)"/>
     <use xlink:href="#DejaVuSans-32" transform="translate(118.994141 0)"/>
     <use xlink:href="#DejaVuSans-35" transform="translate(182.617188 0)"/>
    </g>
   </g>
   <g id="patch_4">
    <path d="M 429.695665 82.293012 
Q 429.796546 82.295767 427.662192 82.237485 
" style="fill: none; stroke: #16a34a; stroke-width: 2; stroke-linecap: round"/>
    <path d="M 423.718276 80.129043 
L 427.662192 82.237485 
L 423.609089 84.127553 
" style="fill: none; stroke: #16a34a; stroke-width: 2; stroke-linecap: round"/>
   </g>
   <g id="text_7">
    <!-- f=30 -->
    <g style="fill: #16a34a" transform="translate(415.51875 110.5469) scale(0.09 -0.09)">
     <defs>
      <path id="DejaVuSans-33" d="M 2597 2516 
Q 3050 2419 3304 2112 
Q 3559 1806 3559 1356 
Q 3559 666 3084 287 
Q 2609 -91 1734 -91 
Q 1441 -91 1130 -33 
Q 819 25 488 141 
L 488 750 
Q 750 597 1062 519 
Q 1375 441 1716 441 
Q 2309 441 2620 675 
Q 2931 909 2931 1356 
Q 2931 1769 2642 2001 
Q 2353 2234 1838 2234 
L 1294 2234 
L 1294 2753 
L 1863 2753 
Q 2328 2753 2575 2939 
Q 2822 3125 2822 3475 
Q 2822 3834 2567 4026 
Q 2313 4219 1838 4219 
Q 1578 4219 1281 4162 
Q 984 4106 628 3988 
L 628 4550 
Q 988 4650 1302 4700 
Q 1616 4750 1894 4750 
Q 2613 4750 3031 4423 
Q 3450 4097 3450 3541 
Q 3450 3153 3228 2886 
Q 3006 2619 2597 2516 
z
" transform="scale(0.015625)"/>
     </defs>
     <use xlink:href="#DejaVuSans-66"/>
     <use xlink:href="#DejaVuSans-3d" transform="translate(35.205078 0)"/>
     <use xlink:href="#DejaVuSans-33" transform="translate(118.994141 0)"/>
     <use xlink:href="#DejaVuSans-30" transform="translate(182.617188 0)"/>
    </g>
   </g>
   <g id="patch_5">
    <path d="M 284.904335 201.395738 
Q 284.803454 201.392983 286.937808 201.451265 
" style="fill: none; stroke: #dc2626; stroke-width: 2; stroke-linecap: round"/>
    <path d="M 290.881724 203.559707 
L 286.937808 201.451265 
L 290.990911 199.561197 
" style="fill: none; stroke: #dc2626; stroke-width: 2; stroke-linecap: round"/>
   </g>
   <g id="text_8">
    <!-- f=8 -->
    <g style="fill: #dc2626" transform="translate(279.781875 182.08295) scale(0.09 -0.09)">
     <defs>
      <path id="DejaVuSans-38" d="M 2034 2216 
Q 1584 2216 1326 1975 
Q 1069 1734 1069 1313 
Q 1069 891 1326 650 
Q 1584 409 2034 409 
Q 2484 409 2743 651 
Q 3003 894 3003 1313 
Q 3003 1734 2745 1975 
Q 2488 2216 2034 2216 
z
M 1403 2484 
Q 997 2584 770 2862 
Q 544 3141 544 3541 
Q 544 4100 942 4425 
Q 1341 4750 2034 4750 
Q 2731 4750 3128 4425 
Q 3525 4100 3525 3541 
Q 3525 3141 3298 2862 
Q 3072 2584 2669 2484 
Q 3125 2378 3379 2068 
Q 3634 1759 3634 1313 
Q 3634 634 3220 271 
Q 2806 -91 2034 -91 
Q 1263 -91 848 271 
Q 434 634 434 1313 
Q 434 1759 690 2068 
Q 947 2378 1403 2484 
z
M 1172 3481 
Q 1172 3119 1398 2916 
Q 1625 2713 2034 2713 
Q 2441 2713 2670 2916 
Q 2900 3119 2900 3481 
Q 2900 3844 2670 4047 
Q 2441 4250 2034 4250 
Q 1625 4250 1398 4047 
Q 1172 3844 1172 3481 
z
" transform="scale(0.015625)"/>
     </defs>
     <use xlink:href="#DejaVuSans-66"/>
     <use xlink:href="#DejaVuSans-3d" transform="translate(35.205078 0)"/>
     <use xlink:href="#DejaVuSans-38" transform="translate(118.994141 0)"/>
    </g>
   </g>
   <g id="patch_6">
    <path d="M 146.304335 201.395738 
Q 146.203454 201.392983 148.337808 201.451265 
" style="fill: none; stroke: #dc2626; stroke-width: 2; stroke-linecap: round"/>
    <path d="M 152.281724 203.559707 
L 148.337808 201.451265 
L 152.390911 199.561197 
" style="fill: none; stroke: #dc2626; stroke-width: 2; stroke-linecap: round"/>
   </g>
   <g id="text_9">
    <!-- f=5 -->
    <g style="fill: #dc2626" transform="translate(141.181875 182.08295) scale(0.09 -0.09)">
     <use xlink:href="#DejaVuSans-66"/>
     <use xlink:href="#DejaVuSans-3d" transform="translate(35.205078 0)"/>
     <use xlink:href="#DejaVuSans-35" transform="translate(118.994141 0)"/>
    </g>
   </g>
   <g id="text_10">
    <!-- Hollier Yöntemi İleri ve Geri Akış Şeması (Backtracking Azaltma) -->
    <g transform="translate(70.455 22.48875) scale(0.12 -0.12)">
     <defs>
      <path id="DejaVuSans-Bold-48" d="M 588 4666 
L 1791 4666 
L 1791 2888 
L 3566 2888 
L 3566 4666 
L 4769 4666 
L 4769 0 
L 3566 0 
L 3566 1978 
L 1791 1978 
L 1791 0 
L 588 0 
L 588 4666 
z
" transform="scale(0.015625)"/>
      <path id="DejaVuSans-Bold-6f" d="M 2203 2784 
Q 1831 2784 1636 2517 
Q 1441 2250 1441 1747 
Q 1441 1244 1636 976 
Q 1831 709 2203 709 
Q 2569 709 2762 976 
Q 2956 1244 2956 1747 
Q 2956 2250 2762 2517 
Q 2569 2784 2203 2784 
z
M 2203 3584 
Q 3106 3584 3614 3096 
Q 4122 2609 4122 1747 
Q 4122 884 3614 396 
Q 3106 -91 2203 -91 
Q 1297 -91 786 396 
Q 275 884 275 1747 
Q 275 2609 786 3096 
Q 1297 3584 2203 3584 
z
" transform="scale(0.015625)"/>
      <path id="DejaVuSans-Bold-6c" d="M 538 4863 
L 1656 4863 
L 1656 0 
L 538 0 
L 538 4863 
z
" transform="scale(0.015625)"/>
      <path id="DejaVuSans-Bold-69" d="M 538 3500 
L 1656 3500 
L 1656 0 
L 538 0 
L 538 3500 
z
M 538 4863 
L 1656 4863 
L 1656 3950 
L 538 3950 
L 538 4863 
z
" transform="scale(0.015625)"/>
      <path id="DejaVuSans-Bold-65" d="M 4031 1759 
L 4031 1441 
L 1416 1441 
Q 1456 1047 1700 850 
Q 1944 653 2381 653 
Q 2734 653 3104 758 
Q 3475 863 3866 1075 
L 3866 213 
Q 3469 63 3072 -14 
Q 2675 -91 2278 -91 
Q 1328 -91 801 392 
Q 275 875 275 1747 
Q 275 2603 792 3093 
Q 1309 3584 2216 3584 
Q 3041 3584 3536 3087 
Q 4031 2591 4031 1759 
z
M 2881 2131 
Q 2881 2450 2695 2645 
Q 2509 2841 2209 2841 
Q 1884 2841 1681 2658 
Q 1478 2475 1428 2131 
L 2881 2131 
z
" transform="scale(0.015625)"/>
      <path id="DejaVuSans-Bold-72" d="M 3138 2547 
Q 2991 2616 2845 2648 
Q 2700 2681 2553 2681 
Q 2122 2681 1889 2404 
Q 1656 2128 1656 1613 
L 1656 0 
L 538 0 
L 538 3500 
L 1656 3500 
L 1656 2925 
Q 1872 3269 2151 3426 
Q 2431 3584 2822 3584 
Q 2878 3584 2943 3579 
Q 3009 3575 3134 3559 
L 3138 2547 
z
" transform="scale(0.015625)"/>
      <path id="DejaVuSans-Bold-20" transform="scale(0.015625)"/>
      <path id="DejaVuSans-Bold-59" d="M -63 4666 
L 1253 4666 
L 2316 3003 
L 3378 4666 
L 4697 4666 
L 2919 1966 
L 2919 0 
L 1716 0 
L 1716 1966 
L -63 4666 
z
" transform="scale(0.015625)"/>
      <path id="DejaVuSans-Bold-f6" d="M 2203 2784 
Q 1831 2784 1636 2517 
Q 1441 2250 1441 1747 
Q 1441 1244 1636 976 
Q 1831 709 2203 709 
Q 2569 709 2762 976 
Q 2956 1244 2956 1747 
Q 2956 2250 2762 2517 
Q 2569 2784 2203 2784 
z
M 2203 3584 
Q 3106 3584 3614 3096 
Q 4122 2609 4122 1747 
Q 4122 884 3614 396 
Q 3106 -91 2203 -91 
Q 1297 -91 786 396 
Q 275 884 275 1747 
Q 275 2609 786 3096 
Q 1297 3584 2203 3584 
z
M 1208 4953 
L 1942 4953 
L 1942 4184 
L 1208 4184 
L 1208 4953 
z
M 2442 4953 
L 3176 4953 
L 3176 4184 
L 2442 4184 
L 2442 4953 
z
" transform="scale(0.015625)"/>
      <path id="DejaVuSans-Bold-6e" d="M 4056 2131 
L 4056 0 
L 2931 0 
L 2931 347 
L 2931 1631 
Q 2931 2084 2911 2256 
Q 2891 2428 2841 2509 
Q 2775 2619 2662 2680 
Q 2550 2741 2406 2741 
Q 2056 2741 1856 2470 
Q 1656 2200 1656 1722 
L 1656 0 
L 538 0 
L 538 3500 
L 1656 3500 
L 1656 2988 
Q 1909 3294 2193 3439 
Q 2478 3584 2822 3584 
Q 3428 3584 3742 3212 
Q 4056 2841 4056 2131 
z
" transform="scale(0.015625)"/>
      <path id="DejaVuSans-Bold-74" d="M 1759 4494 
L 1759 3500 
L 2913 3500 
L 2913 2700 
L 1759 2700 
L 1759 1216 
Q 1759 972 1856 886 
Q 1953 800 2241 800 
L 2816 800 
L 2816 0 
L 1856 0 
Q 1194 0 917 276 
Q 641 553 641 1216 
L 641 2700 
L 84 2700 
L 84 3500 
L 641 3500 
L 641 4494 
L 1759 4494 
z
" transform="scale(0.015625)"/>
      <path id="DejaVuSans-Bold-6d" d="M 3781 2919 
Q 3994 3244 4286 3414 
Q 4578 3584 4928 3584 
Q 5531 3584 5847 3212 
Q 6163 2841 6163 2131 
L 6163 0 
L 5038 0 
L 5038 1825 
Q 5041 1866 5042 1909 
Q 5044 1953 5044 2034 
Q 5044 2406 4934 2573 
Q 4825 2741 4581 2741 
Q 4263 2741 4089 2478 
Q 3916 2216 3909 1719 
L 3909 0 
L 2784 0 
L 2784 1825 
Q 2784 2406 2684 2573 
Q 2584 2741 2328 2741 
Q 2006 2741 1831 2477 
Q 1656 2213 1656 1722 
L 1656 0 
L 531 0 
L 531 3500 
L 1656 3500 
L 1656 2988 
Q 1863 3284 2130 3434 
Q 2397 3584 2719 3584 
Q 3081 3584 3359 3409 
Q 3638 3234 3781 2919 
z
" transform="scale(0.015625)"/>
      <path id="DejaVuSans-Bold-130" d="M 588 4666 
L 1791 4666 
L 1791 0 
L 588 0 
L 588 4666 
z
M 772 5921 
L 1628 5921 
L 1628 5152 
L 772 5152 
L 772 5921 
z
" transform="scale(0.015625)"/>
      <path id="DejaVuSans-Bold-76" d="M 97 3500 
L 1216 3500 
L 2088 1081 
L 2956 3500 
L 4078 3500 
L 2700 0 
L 1472 0 
L 97 3500 
z
" transform="scale(0.015625)"/>
      <path id="DejaVuSans-Bold-47" d="M 4781 347 
Q 4331 128 3847 18 
Q 3363 -91 2847 -91 
Q 1681 -91 1000 561 
Q 319 1213 319 2328 
Q 319 3456 1012 4103 
Q 1706 4750 2913 4750 
Q 3378 4750 3804 4662 
Q 4231 4575 4609 4403 
L 4609 3438 
Q 4219 3659 3833 3768 
Q 3447 3878 3059 3878 
Q 2341 3878 1952 3476 
Q 1563 3075 1563 2328 
Q 1563 1588 1938 1184 
Q 2313 781 3003 781 
Q 3191 781 3352 804 
Q 3513 828 3641 878 
L 3641 1784 
L 2906 1784 
L 2906 2591 
L 4781 2591 
L 4781 347 
z
" transform="scale(0.015625)"/>
      <path id="DejaVuSans-Bold-41" d="M 3419 850 
L 1538 850 
L 1241 0 
L 31 0 
L 1759 4666 
L 3194 4666 
L 4922 0 
L 3713 0 
L 3419 850 
z
M 1838 1716 
L 3116 1716 
L 2478 3572 
L 1838 1716 
z
" transform="scale(0.015625)"/>
      <path id="DejaVuSans-Bold-6b" d="M 538 4863 
L 1656 4863 
L 1656 2216 
L 2944 3500 
L 4244 3500 
L 2534 1894 
L 4378 0 
L 3022 0 
L 1656 1459 
L 1656 0 
L 538 0 
L 538 4863 
z
" transform="scale(0.015625)"/>
      <path id="DejaVuSans-Bold-131" d="M 538 3500 
L 1656 3500 
L 1656 0 
L 538 0 
L 538 3500 
z
" transform="scale(0.015625)"/>
      <path id="DejaVuSans-Bold-15f" d="M 3272 3391 
L 3272 2541 
Q 2913 2691 2578 2766 
Q 2244 2841 1947 2841 
Q 1628 2841 1473 2761 
Q 1319 2681 1319 2516 
Q 1319 2381 1436 2309 
Q 1553 2238 1856 2203 
L 2053 2175 
Q 2913 2066 3209 1816 
Q 3506 1566 3506 1031 
Q 3506 472 3093 190 
Q 2681 -91 1863 -91 
Q 1516 -91 1145 -36 
Q 775 19 384 128 
L 384 978 
Q 719 816 1070 734 
Q 1422 653 1784 653 
Q 2113 653 2278 743 
Q 2444 834 2444 1013 
Q 2444 1163 2330 1236 
Q 2216 1309 1875 1350 
L 1678 1375 
Q 931 1469 631 1722 
Q 331 1975 331 2491 
Q 331 3047 712 3315 
Q 1094 3584 1881 3584 
Q 2191 3584 2531 3537 
Q 2872 3491 3272 3391 
z
M 2185 0 
Q 2367 -194 2452 -359 
Q 2538 -525 2538 -672 
Q 2538 -969 2346 -1111 
Q 2154 -1253 1757 -1253 
Q 1607 -1253 1447 -1233 
Q 1288 -1213 1126 -1172 
L 1123 -697 
Q 1279 -747 1408 -770 
Q 1538 -794 1642 -794 
Q 1823 -794 1924 -722 
Q 2026 -650 2026 -525 
Q 2026 -444 1959 -316 
Q 1892 -188 1751 0 
L 2185 0 
z
" transform="scale(0.015625)"/>
      <path id="DejaVuSans-Bold-15e" d="M 3834 4519 
L 3834 3531 
Q 3450 3703 3084 3790 
Q 2719 3878 2394 3878 
Q 1963 3878 1756 3759 
Q 1550 3641 1550 3391 
Q 1550 3203 1689 3098 
Q 1828 2994 2194 2919 
L 2706 2816 
Q 3484 2659 3812 2340 
Q 4141 2022 4141 1434 
Q 4141 663 3683 286 
Q 3225 -91 2284 -91 
Q 1841 -91 1394 -6 
Q 947 78 500 244 
L 500 1259 
Q 947 1022 1364 901 
Q 1781 781 2169 781 
Q 2563 781 2772 912 
Q 2981 1044 2981 1288 
Q 2981 1506 2839 1625 
Q 2697 1744 2272 1838 
L 1806 1941 
Q 1106 2091 782 2419 
Q 459 2747 459 3303 
Q 459 4000 909 4375 
Q 1359 4750 2203 4750 
Q 2588 4750 2994 4692 
Q 3400 4634 3834 4519 
z
M 2569 0 
Q 2751 -194 2836 -359 
Q 2922 -525 2922 -672 
Q 2922 -969 2730 -1111 
Q 2538 -1253 2141 -1253 
Q 1991 -1253 1831 -1233 
Q 1672 -1213 1510 -1172 
L 1507 -697 
Q 1663 -747 1792 -770 
Q 1922 -794 2026 -794 
Q 2207 -794 2308 -722 
Q 2410 -650 2410 -525 
Q 2410 -444 2343 -316 
Q 2276 -188 2135 0 
L 2569 0 
z
" transform="scale(0.015625)"/>
      <path id="DejaVuSans-Bold-61" d="M 2106 1575 
Q 1756 1575 1579 1456 
Q 1403 1338 1403 1106 
Q 1403 894 1545 773 
Q 1688 653 1941 653 
Q 2256 653 2472 879 
Q 2688 1106 2688 1447 
L 2688 1575 
L 2106 1575 
z
M 3816 1997 
L 3816 0 
L 2688 0 
L 2688 519 
Q 2463 200 2181 54 
Q 1900 -91 1497 -91 
Q 953 -91 614 226 
Q 275 544 275 1050 
Q 275 1666 698 1953 
Q 1122 2241 2028 2241 
L 2688 2241 
L 2688 2328 
Q 2688 2594 2478 2717 
Q 2269 2841 1825 2841 
Q 1466 2841 1156 2769 
Q 847 2697 581 2553 
L 581 3406 
Q 941 3494 1303 3539 
Q 1666 3584 2028 3584 
Q 2975 3584 3395 3211 
Q 3816 2838 3816 1997 
z
" transform="scale(0.015625)"/>
      <path id="DejaVuSans-Bold-73" d="M 3272 3391 
L 3272 2541 
Q 2913 2691 2578 2766 
Q 2244 2841 1947 2841 
Q 1628 2841 1473 2761 
Q 1319 2681 1319 2516 
Q 1319 2381 1436 2309 
Q 1553 2238 1856 2203 
L 2053 2175 
Q 2913 2066 3209 1816 
Q 3506 1566 3506 1031 
Q 3506 472 3093 190 
Q 2681 -91 1863 -91 
Q 1516 -91 1145 -36 
Q 775 19 384 128 
L 384 978 
Q 719 816 1070 734 
Q 1422 653 1784 653 
Q 2113 653 2278 743 
Q 2444 834 2444 1013 
Q 2444 1163 2330 1236 
Q 2216 1309 1875 1350 
L 1678 1375 
Q 931 1469 631 1722 
Q 331 1975 331 2491 
Q 331 3047 712 3315 
Q 1094 3584 1881 3584 
Q 2191 3584 2531 3537 
Q 2872 3491 3272 3391 
z
" transform="scale(0.015625)"/>
      <path id="DejaVuSans-Bold-28" d="M 2413 -844 
L 1484 -844 
Q 1006 -72 778 623 
Q 550 1319 550 2003 
Q 550 2688 779 3389 
Q 1009 4091 1484 4856 
L 2413 4856 
Q 2013 4116 1813 3408 
Q 1613 2700 1613 2009 
Q 1613 1319 1811 609 
Q 2009 -100 2413 -844 
z
" transform="scale(0.015625)"/>
      <path id="DejaVuSans-Bold-42" d="M 2456 2859 
Q 2741 2859 2887 2984 
Q 3034 3109 3034 3353 
Q 3034 3594 2887 3720 
Q 2741 3847 2456 3847 
L 1791 3847 
L 1791 2859 
L 2456 2859 
z
M 2497 819 
Q 2859 819 3042 972 
Q 3225 1125 3225 1434 
Q 3225 1738 3044 1889 
Q 2863 2041 2497 2041 
L 1791 2041 
L 1791 819 
L 2497 819 
z
M 3616 2497 
Q 4003 2384 4215 2081 
Q 4428 1778 4428 1338 
Q 4428 663 3972 331 
Q 3516 0 2584 0 
L 588 0 
L 588 4666 
L 2394 4666 
Q 3366 4666 3802 4372 
Q 4238 4078 4238 3431 
Q 4238 3091 4078 2852 
Q 3919 2613 3616 2497 
z
" transform="scale(0.015625)"/>
      <path id="DejaVuSans-Bold-63" d="M 3366 3391 
L 3366 2478 
Q 3138 2634 2908 2709 
Q 2678 2784 2431 2784 
Q 1963 2784 1702 2511 
Q 1441 2238 1441 1747 
Q 1441 1256 1702 982 
Q 1963 709 2431 709 
Q 2694 709 2930 787 
Q 3166 866 3366 1019 
L 3366 103 
Q 3103 6 2833 -42 
Q 2563 -91 2291 -91 
Q 1344 -91 809 395 
Q 275 881 275 1747 
Q 275 2613 809 3098 
Q 1344 3584 2291 3584 
Q 2566 3584 2833 3536 
Q 3100 3488 3366 3391 
z
" transform="scale(0.015625)"/>
      <path id="DejaVuSans-Bold-67" d="M 2919 594 
Q 2688 288 2409 144 
Q 2131 0 1766 0 
Q 1125 0 706 504 
Q 288 1009 288 1791 
Q 288 2575 706 3076 
Q 1125 3578 1766 3578 
Q 2131 3578 2409 3434 
Q 2688 3291 2919 2981 
L 2919 3500 
L 4044 3500 
L 4044 353 
Q 4044 -491 3511 -936 
Q 2978 -1381 1966 -1381 
Q 1638 -1381 1331 -1331 
Q 1025 -1281 716 -1178 
L 716 -306 
Q 1009 -475 1290 -558 
Q 1572 -641 1856 -641 
Q 2406 -641 2662 -400 
Q 2919 -159 2919 353 
L 2919 594 
z
M 2181 2772 
Q 1834 2772 1640 2515 
Q 1447 2259 1447 1791 
Q 1447 1309 1634 1061 
Q 1822 813 2181 813 
Q 2531 813 2725 1069 
Q 2919 1325 2919 1791 
Q 2919 2259 2725 2515 
Q 2531 2772 2181 2772 
z
" transform="scale(0.015625)"/>
      <path id="DejaVuSans-Bold-7a" d="M 366 3500 
L 3419 3500 
L 3419 2719 
L 1575 800 
L 3419 800 
L 3419 0 
L 288 0 
L 288 781 
L 2131 2700 
L 366 2700 
L 366 3500 
z
" transform="scale(0.015625)"/>
      <path id="DejaVuSans-Bold-29" d="M 513 -844 
Q 913 -100 1113 609 
Q 1313 1319 1313 2009 
Q 1313 2700 1113 3408 
Q 913 4116 513 4856 
L 1441 4856 
Q 1916 4091 2145 3389 
Q 2375 2688 2375 2003 
Q 2375 1319 2147 623 
Q 1919 -72 1441 -844 
L 513 -844 
z
" transform="scale(0.015625)"/>
     </defs>
     <use xlink:href="#DejaVuSans-Bold-48"/>
     <use xlink:href="#DejaVuSans-Bold-6f" transform="translate(83.691406 0)"/>
     <use xlink:href="#DejaVuSans-Bold-6c" transform="translate(152.392578 0)"/>
     <use xlink:href="#DejaVuSans-Bold-6c" transform="translate(186.669922 0)"/>
     <use xlink:href="#DejaVuSans-Bold-69" transform="translate(220.947266 0)"/>
     <use xlink:href="#DejaVuSans-Bold-65" transform="translate(255.224609 0)"/>
     <use xlink:href="#DejaVuSans-Bold-72" transform="translate(323.046875 0)"/>
     <use xlink:href="#DejaVuSans-Bold-20" transform="translate(372.363281 0)"/>
     <use xlink:href="#DejaVuSans-Bold-59" transform="translate(407.177734 0)"/>
     <use xlink:href="#DejaVuSans-Bold-f6" transform="translate(470.464844 0)"/>
     <use xlink:href="#DejaVuSans-Bold-6e" transform="translate(539.166016 0)"/>
     <use xlink:href="#DejaVuSans-Bold-74" transform="translate(610.357422 0)"/>
     <use xlink:href="#DejaVuSans-Bold-65" transform="translate(658.160156 0)"/>
     <use xlink:href="#DejaVuSans-Bold-6d" transform="translate(725.982422 0)"/>
     <use xlink:href="#DejaVuSans-Bold-69" transform="translate(830.181641 0)"/>
     <use xlink:href="#DejaVuSans-Bold-20" transform="translate(864.458984 0)"/>
     <use xlink:href="#DejaVuSans-Bold-130" transform="translate(899.273438 0)"/>
     <use xlink:href="#DejaVuSans-Bold-6c" transform="translate(936.480469 0)"/>
     <use xlink:href="#DejaVuSans-Bold-65" transform="translate(970.757812 0)"/>
     <use xlink:href="#DejaVuSans-Bold-72" transform="translate(1038.580078 0)"/>
     <use xlink:href="#DejaVuSans-Bold-69" transform="translate(1087.896484 0)"/>
     <use xlink:href="#DejaVuSans-Bold-20" transform="translate(1122.173828 0)"/>
     <use xlink:href="#DejaVuSans-Bold-76" transform="translate(1156.988281 0)"/>
     <use xlink:href="#DejaVuSans-Bold-65" transform="translate(1222.173828 0)"/>
     <use xlink:href="#DejaVuSans-Bold-20" transform="translate(1289.996094 0)"/>
     <use xlink:href="#DejaVuSans-Bold-47" transform="translate(1324.810547 0)"/>
     <use xlink:href="#DejaVuSans-Bold-65" transform="translate(1406.890625 0)"/>
     <use xlink:href="#DejaVuSans-Bold-72" transform="translate(1474.712891 0)"/>
     <use xlink:href="#DejaVuSans-Bold-69" transform="translate(1524.029297 0)"/>
     <use xlink:href="#DejaVuSans-Bold-20" transform="translate(1558.306641 0)"/>
     <use xlink:href="#DejaVuSans-Bold-41" transform="translate(1593.121094 0)"/>
     <use xlink:href="#DejaVuSans-Bold-6b" transform="translate(1670.513672 0)"/>
     <use xlink:href="#DejaVuSans-Bold-131" transform="translate(1737.017578 0)"/>
     <use xlink:href="#DejaVuSans-Bold-15f" transform="translate(1771.294922 0)"/>
     <use xlink:href="#DejaVuSans-Bold-20" transform="translate(1830.816406 0)"/>
     <use xlink:href="#DejaVuSans-Bold-15e" transform="translate(1865.630859 0)"/>
     <use xlink:href="#DejaVuSans-Bold-65" transform="translate(1937.652344 0)"/>
     <use xlink:href="#DejaVuSans-Bold-6d" transform="translate(2005.474609 0)"/>
     <use xlink:href="#DejaVuSans-Bold-61" transform="translate(2109.673828 0)"/>
     <use xlink:href="#DejaVuSans-Bold-73" transform="translate(2177.154297 0)"/>
     <use xlink:href="#DejaVuSans-Bold-131" transform="translate(2236.675781 0)"/>
     <use xlink:href="#DejaVuSans-Bold-20" transform="translate(2270.953125 0)"/>
     <use xlink:href="#DejaVuSans-Bold-28" transform="translate(2305.767578 0)"/>
     <use xlink:href="#DejaVuSans-Bold-42" transform="translate(2351.470703 0)"/>
     <use xlink:href="#DejaVuSans-Bold-61" transform="translate(2427.691406 0)"/>
     <use xlink:href="#DejaVuSans-Bold-63" transform="translate(2495.171875 0)"/>
     <use xlink:href="#DejaVuSans-Bold-6b" transform="translate(2554.449219 0)"/>
     <use xlink:href="#DejaVuSans-Bold-74" transform="translate(2620.953125 0)"/>
     <use xlink:href="#DejaVuSans-Bold-72" transform="translate(2668.755859 0)"/>
     <use xlink:href="#DejaVuSans-Bold-61" transform="translate(2718.072266 0)"/>
     <use xlink:href="#DejaVuSans-Bold-63" transform="translate(2785.552734 0)"/>
     <use xlink:href="#DejaVuSans-Bold-6b" transform="translate(2844.830078 0)"/>
     <use xlink:href="#DejaVuSans-Bold-69" transform="translate(2911.333984 0)"/>
     <use xlink:href="#DejaVuSans-Bold-6e" transform="translate(2945.611328 0)"/>
     <use xlink:href="#DejaVuSans-Bold-67" transform="translate(3016.802734 0)"/>
     <use xlink:href="#DejaVuSans-Bold-20" transform="translate(3088.384766 0)"/>
     <use xlink:href="#DejaVuSans-Bold-41" transform="translate(3123.199219 0)"/>
     <use xlink:href="#DejaVuSans-Bold-7a" transform="translate(3200.591797 0)"/>
     <use xlink:href="#DejaVuSans-Bold-61" transform="translate(3258.794922 0)"/>
     <use xlink:href="#DejaVuSans-Bold-6c" transform="translate(3326.275391 0)"/>
     <use xlink:href="#DejaVuSans-Bold-74" transform="translate(3360.552734 0)"/>
     <use xlink:href="#DejaVuSans-Bold-6d" transform="translate(3408.355469 0)"/>
     <use xlink:href="#DejaVuSans-Bold-61" transform="translate(3512.554688 0)"/>
     <use xlink:href="#DejaVuSans-Bold-29" transform="translate(3580.035156 0)"/>
    </g>
   </g>
  </g>
 </g>
 <defs>
  <clipPath id="pe7917a0c26">
   <rect x="10.8" y="42.48875" width="554.4" height="198.71125"/>
  </clipPath>
 </defs>
</svg>
